<svg width="117" height="109" viewBox="0 0 117 109" fill="none" xmlns="http://www.w3.org/2000/svg">
<g clip-path="url(#clip0)">
<path d="M65.593 73.4855L81.1837 66.8177L86.4508 66.6774L109.626 62.5364L85.5378 59.8693L68.1212 67.0985L65.593 73.4855Z" fill="#888C90"/>
<path d="M80.7623 38.1113L82.9394 48.6393L108.713 48.0077L86.4508 66.6773H26.9676L49.7215 40.3573L80.7623 38.1113Z" fill="url(#paint0_linear)"/>
<path d="M86.4508 66.6774L109.626 62.5364L93.6843 60.7115L86.4508 66.6774Z" fill="#5C5F63"/>
<path d="M67.9106 41.34L55.9016 44.0773L49.3001 7.43979L64.3991 0L67.9106 41.34Z" fill="url(#paint1_linear)"/>
<path d="M57.3061 16.9851L55.6207 17.6869L54.8481 12.6335L56.6741 11.8615L57.3061 16.9851Z" fill="#FE6A5F"/>
<path d="M59.6237 21.1262L58.0085 21.7579L57.3764 17.1256L59.2023 16.3535L59.6237 21.1262Z" fill="#FE6A5F"/>
<path d="M58.6405 10.9491L56.6741 11.7913L56.0421 7.01862L58.2191 6.03601L58.6405 10.9491Z" fill="#FE6A5F"/>
<path d="M54.9184 12.7739L53.0222 13.6162L52.1795 8.91365L54.2161 8.00122L54.9184 12.7739Z" fill="#FE6A5F"/>
<path d="M56.3932 22.4597L54.5673 23.1616L53.865 18.5994L55.6909 17.8274L56.3932 22.4597Z" fill="#FE6A5F"/>
<path d="M58.5703 26.0392L57.0252 26.6709L56.3932 22.4597L58.0084 21.7578L58.5703 26.0392Z" fill="#FE6A5F"/>
<path d="M57.5871 30.6014L55.9718 31.1629L55.2695 27.3728L57.0252 26.6709L57.5871 30.6014Z" fill="#FE6A5F"/>
<path d="M59.4832 33.6194L58.1489 34.1809L57.587 30.6014L59.0618 30.0399L59.4832 33.6194Z" fill="#FE6A5F"/>
<path d="M58.6405 37.4797L57.0955 38.0412L56.5336 34.7424L58.1489 34.1809L58.6405 37.4797Z" fill="#FE6A5F"/>
<path d="M60.3259 29.4082L58.9916 29.8995L58.5 25.9691L59.9046 25.4076L60.3259 29.4082Z" fill="#FE6A5F"/>
<path d="M60.958 36.5672L59.9046 36.9181L59.4832 33.5492L60.6069 33.1281L60.958 36.5672Z" fill="#FE6A5F"/>
<path d="M63.2053 18.9504L61.4496 19.6523L61.0282 14.8094L62.8541 14.0374L63.2053 18.9504Z" fill="#FE6A5F"/>
<path d="M65.1717 22.9511L63.6267 23.5827L63.2755 19.0908L65.0312 18.3187L65.1717 22.9511Z" fill="#FE6A5F"/>
<path d="M64.8205 13.1951L62.8541 14.0373L62.503 9.40498L64.6098 8.42236L64.8205 13.1951Z" fill="#FE6A5F"/>
<path d="M61.0984 14.9497L59.2023 15.7218L58.6404 11.2298L60.6771 10.3876L61.0984 14.9497Z" fill="#FE6A5F"/>
<path d="M61.9411 24.2144L60.1854 24.9162L59.6938 20.4945L61.5198 19.7926L61.9411 24.2144Z" fill="#FE6A5F"/>
<path d="M79.0066 38.8133L67.9106 41.34L64.3992 0L76.4784 4.98326L77.3211 21.8281L79.0066 38.8133Z" fill="url(#paint2_linear)"/>
<path d="M67.9105 2.10559L75.3547 5.47455L75.144 17.8274L74.0906 6.03605L67.9105 2.10559Z" fill="#51000A"/>
<path d="M55.1993 38.7431L51.8985 7.43979L64.3991 0L50.5642 6.80811L55.1993 38.7431Z" fill="#FFB19E"/>
<path d="M65.8739 34.5319V34.0406L65.3823 34.181L64.68 34.4617L64.5396 31.5841V31.4437C64.8907 31.3735 65.1716 31.3033 65.5228 31.2331H65.6632V31.0928V30.812L65.7335 30.1102C65.7335 29.9698 65.7335 29.7592 65.7335 29.6189V29.1275L65.6632 27.1623V26.8816L65.3823 26.8114H65.3121L65.1716 26.8816L64.1885 27.2325L64.1182 26.2499L64.048 25.0567L63.9778 24.1443V23.9337L65.3121 23.3722L65.5228 23.302V23.0213L65.4526 20.7051C65.4526 20.4946 65.4526 20.3542 65.4526 20.1436C65.4526 19.9331 65.3823 19.7927 65.3121 19.5822C65.2419 19.2312 65.1014 18.8101 65.0312 18.4592C65.0312 18.5293 65.0312 18.6697 64.961 18.7399C64.8907 19.0207 64.8205 19.3014 64.8205 19.6523C64.8205 19.8629 64.7503 20.0033 64.7503 20.2138C64.7503 20.4244 64.7503 20.635 64.7503 20.7753L64.8205 22.8107L63.9075 23.1617L63.6266 19.3716C63.6969 19.3716 63.7671 19.3014 63.8373 19.2312L64.2587 18.9505C64.2587 18.9505 64.2587 18.9505 64.3289 18.9505C64.6098 18.7399 64.8205 18.5995 65.1014 18.389C64.961 18.389 64.8205 18.4592 64.68 18.4592C64.4694 18.4592 64.3289 18.5293 64.1182 18.5293L63.6266 18.5995C63.6266 18.5995 63.6266 18.5995 63.5564 18.5995L63.2053 14.3883C63.2755 14.3181 63.3457 14.3181 63.4159 14.248L63.8373 13.9672C64.1182 13.7567 64.4694 13.5461 64.7503 13.3355C64.68 13.3355 64.6098 13.3355 64.5396 13.4057C64.4694 13.4057 64.3991 13.4057 64.3289 13.4759C64.1182 13.5461 63.9075 13.5461 63.6969 13.6163H63.2053C63.2053 13.6163 63.2053 13.6163 63.135 13.6163L62.8541 9.75601L64.3289 9.12433L64.3991 10.9492C64.3991 11.1597 64.3991 11.3703 64.3991 11.5107C64.3991 11.7212 64.4694 11.9318 64.5396 12.0722C64.5396 12.1424 64.5396 12.2125 64.6098 12.2827C64.68 12.5635 64.7503 12.8442 64.8205 13.1952V13.2653C64.8907 12.9144 64.961 12.6337 65.0312 12.2827C65.0312 12.2125 65.0312 12.1424 65.0312 12.0722C65.0312 11.8616 65.1014 11.651 65.1014 11.5107C65.1014 11.3001 65.1014 11.0896 65.1014 10.9492L65.0312 8.56283V8.07153L64.5396 8.28209L62.4328 9.2647L62.2221 9.33489V9.61563L62.5732 13.9672L61.4496 14.4585L61.0984 10.5281L61.0282 10.0368L60.6068 10.2473L58.9916 10.9492L58.7809 11.0194C58.8511 10.6684 58.8511 10.3175 58.9213 10.0368C58.9213 9.96657 58.9213 9.89638 58.9213 9.82619C58.9213 9.61563 58.9916 9.40507 58.9916 9.19451C58.9916 8.98395 58.9213 8.77339 58.9213 8.56283L58.7107 6.1063L58.5 5.61499L58.0786 5.82555L55.9015 6.80816L55.6909 6.87835V7.1591L56.2527 11.7212L55.129 12.2125L54.497 8.07153L54.4267 7.58022L54.0756 7.79078L52.039 8.70321L51.8283 8.84358L51.8985 9.12433L52.5306 12.8442L52.671 13.8268L52.7413 14.248L53.1626 14.0374L54.6374 13.4057C54.6374 13.6865 54.7077 13.897 54.7077 14.1778C54.7779 14.5989 54.9183 14.9498 54.9886 15.3709C55.1993 16.0728 55.3397 16.8449 55.5504 17.5467C55.4802 17.5467 55.4099 17.6169 55.3397 17.6169C55.2695 17.6169 55.1993 17.6871 55.129 17.7573L54.7077 18.038C54.5672 18.1784 54.3565 18.2486 54.2161 18.389C54.0756 18.4592 54.0054 18.5293 53.8649 18.5995C53.9351 18.5995 54.0054 18.5995 54.0756 18.5293C54.3565 18.4592 54.5672 18.4592 54.8481 18.389L55.3397 18.3188H55.4099L55.9718 22.2492L54.8481 22.6704L54.497 20.8455C54.497 20.635 54.4267 20.4946 54.4267 20.284C54.3565 20.0735 54.2863 19.9331 54.2161 19.7225C54.2161 19.6523 54.1458 19.5821 54.1458 19.512C54.0756 19.2312 53.9351 18.9505 53.7947 18.6697V18.5995C53.7947 18.9505 53.7245 19.3014 53.7245 19.5822C53.7245 19.6523 53.7245 19.7225 53.7245 19.7927C53.7245 20.0033 53.7245 20.2138 53.7245 20.3542C53.7947 20.5648 53.7947 20.7051 53.8649 20.9157L54.2161 23.1617L54.2863 23.5828L54.7077 23.4424L56.042 22.8809L56.6038 26.3903L55.1993 26.9518L54.9183 27.0219L54.9886 27.3027L55.6206 31.163L55.6909 31.5841L56.1122 31.4437L57.3061 30.9524L57.7275 33.8301L56.4634 34.3214L56.1824 34.6021L56.2527 34.8829L56.5336 36.4972L56.6038 36.7077C56.6038 36.7779 56.6038 36.8481 56.6038 36.9183L56.8145 37.3394C56.955 37.6201 57.0252 37.8307 57.1656 38.1114V38.0413C57.1656 37.9711 57.1656 37.9711 57.1656 37.9009C57.1656 37.6903 57.2359 37.4798 57.2359 37.2692V36.8481C57.2359 36.7779 57.2359 36.7077 57.2359 36.6375V36.427L56.955 35.0934L57.8679 34.7425L58.2893 37.3394L58.2191 37.4096L57.8679 37.6201C57.8679 37.6201 57.7977 37.6201 57.7977 37.6903C57.6572 37.7605 57.587 37.8307 57.4466 37.9711C57.3763 38.0413 57.3061 38.1115 57.1656 38.1816C57.4466 38.1816 57.6572 38.1816 57.9382 38.1816H58.0084L58.4297 38.1114C58.5702 38.1114 58.6404 38.0413 58.7809 37.9711L59.0618 37.9009L58.9916 37.55L58.5 34.5319L59.2023 34.2512L59.5534 37.0586L59.6236 37.4798L60.045 37.3394L60.958 36.9885L61.0984 36.9183L61.2389 36.8481L61.3091 37.6903C61.3091 37.8307 61.3091 37.9711 61.3793 38.1114L61.5198 38.4624C61.5198 38.5326 61.5198 38.5326 61.59 38.6028C61.6602 38.8133 61.8007 39.0239 61.8709 39.2344C61.8709 39.1642 61.8709 39.1642 61.8709 39.0941C61.8709 39.0239 61.8709 39.0239 61.8709 38.9537C61.9412 38.7431 61.9412 38.6028 61.9412 38.3922L62.0114 37.9711C62.0114 37.9009 62.0114 37.7605 62.0114 37.6903C62.0114 37.6201 62.0114 37.6201 62.0114 37.55L61.8709 36.2164L62.7137 35.9357L62.7839 36.9183L62.9243 38.3922C62.8541 38.3922 62.8541 38.3922 62.7839 38.4624L62.503 38.8133C62.503 38.8133 62.4328 38.8133 62.4328 38.8835C62.2923 38.9537 62.2221 39.0239 62.0816 39.1642C62.0114 39.2344 61.9412 39.3046 61.8007 39.3748C62.0816 39.3748 62.2923 39.3748 62.5732 39.3748H62.6434L63.0648 39.3046C63.2053 39.3046 63.3457 39.2344 63.4159 39.1642L63.6969 39.0941V38.8133L63.4862 36.7779L63.4159 35.7953L63.8373 35.6549C63.9075 35.5847 64.048 35.5847 64.1182 35.5145C64.1885 35.7953 64.1885 36.1462 64.2587 36.427C64.3289 36.9885 64.4694 37.6201 64.5396 38.1816V38.1114C64.5396 38.0413 64.5396 38.0413 64.5396 37.9711C64.5396 37.4096 64.5396 36.9183 64.6098 36.427C64.6098 36.076 64.6098 35.6549 64.6098 35.2338L64.4694 35.304H64.3991L64.1885 35.3742V35.1636V35.0934V35.0232V34.953V34.8127C64.048 34.8829 63.9075 34.8829 63.6969 34.953L63.3457 35.0934L63.0648 32.3561L62.7839 32.4263H62.7137H62.6434L62.3625 32.4965V32.2158V32.0754V31.7946L61.4496 32.1456L61.0984 29.1275L62.0816 28.7766L62.3625 31.7946L62.5732 31.7245H62.6434H62.7137L62.8541 31.6543L63.0648 31.5841V31.7946V31.8648V32.0754V32.1456V32.3561L63.8373 32.0754L64.048 34.8829C64.1182 34.8829 64.1885 34.8829 64.1885 34.8127H64.2587L64.3991 34.7425H64.4694H64.5396H64.68V34.8127V34.953V35.304L65.1716 35.0934C65.1716 35.2338 65.1716 35.304 65.1716 35.4444L65.3121 36.2866V36.4972L65.3823 36.8481L65.4526 37.6903V37.7605V37.8307L65.5228 37.7605V37.9009V37.8307H65.4526L64.6098 38.2518L65.7335 37.9711H65.8037V37.9009L65.8739 36.8481V36.6375V36.2866L65.9442 35.4444C65.9442 35.0934 65.9442 34.8127 65.8739 34.5319ZM53.2329 13.1952L52.5306 9.19451L53.8649 8.56283L54.497 12.5635L53.2329 13.1952ZM61.2389 15.2306L62.5732 14.6691L62.8541 18.8101L61.8007 19.2312C61.8007 19.0207 61.7305 18.7399 61.7305 18.5293C61.7305 18.1082 61.59 17.7573 61.5198 17.3362C61.5198 17.1958 61.4496 17.0554 61.4496 16.9151C61.3091 16.3536 61.2389 15.7921 61.0984 15.2306H61.2389ZM58.9916 29.7592C58.9916 29.1977 58.9916 28.6362 58.9916 28.0747C58.9916 27.7238 58.9916 27.4431 58.9916 27.0921C58.9916 26.8114 58.9213 26.5306 58.8511 26.3201L59.4129 26.1095L59.6236 26.0393L59.7641 27.5834L59.8343 28.0747C59.8343 28.2151 59.9045 28.4257 59.9045 28.5661L60.045 29.2679V29.3381V29.4083C59.9748 29.4083 59.9045 29.4785 59.9045 29.4785C59.7641 29.5487 59.6939 29.6189 59.5534 29.6189C59.4832 29.689 59.4129 29.689 59.3427 29.7592V29.689V29.6189L58.9916 29.7592ZM59.6236 22.8809L59.9045 25.0567V25.1269H59.8343L59.3427 25.3375L58.7809 25.548L58.3595 22.1089L59.5534 21.6176C59.5534 21.6878 59.5534 21.6878 59.5534 21.7579C59.5534 21.9685 59.5534 22.1089 59.5534 22.3194C59.5534 22.53 59.6236 22.6704 59.6236 22.8809ZM60.045 21.5474C60.045 21.4772 59.9748 21.407 59.9748 21.3368V21.1964L59.9045 20.635C59.9045 20.635 59.9045 20.635 59.9748 20.635C60.2557 20.5648 60.4664 20.5648 60.7473 20.4946L61.2389 20.4244L61.59 24.1443L60.5366 24.5654L60.3259 22.8107C60.3259 22.6002 60.2557 22.4598 60.2557 22.2492C60.2557 22.0387 60.1854 21.8983 60.1152 21.6878C60.045 21.6176 60.045 21.6176 60.045 21.5474ZM60.3259 11.0194L60.677 14.9498V15.0902V15.1604C60.5366 15.2306 60.3259 15.2306 60.1854 15.3008C59.9045 15.3709 59.6236 15.4411 59.3427 15.5815V14.7393C59.3427 14.3883 59.2725 13.9672 59.2023 13.6163L58.9916 11.651L60.3259 11.0194ZM58.7107 14.7393L58.9213 15.8623L58.9916 16.143L59.2023 16.0026C59.6939 15.7219 60.1855 15.4411 60.677 15.1604V15.3709H60.7473L60.958 15.3008C60.958 15.8623 60.958 16.4237 60.958 16.9852V17.4064C60.958 17.8275 60.958 18.1784 60.958 18.5995C61.0282 18.9505 61.0282 19.3014 61.0984 19.6523C61.0282 19.6523 60.958 19.7225 60.958 19.7225L60.5366 20.0033C60.3961 20.1436 60.1855 20.2138 60.045 20.3542C59.9748 20.4244 59.9045 20.4244 59.8343 20.4946V20.4244L59.6939 18.7399C59.6939 18.5294 59.6236 18.3188 59.6236 18.1082C59.6236 17.8977 59.5534 17.6871 59.4832 17.5467C59.3427 17.1958 59.2725 16.7747 59.132 16.4237C59.132 16.4939 59.132 16.6343 59.132 16.7045C59.0618 17.0554 59.0618 17.3362 58.9916 17.6871C58.9916 17.8977 58.9213 18.1082 58.9213 18.3188C58.9213 18.5293 58.9213 18.7399 58.9916 18.9505L59.2023 21.0561L58.2893 21.407L57.7977 17.4765C57.8679 17.4064 57.9381 17.4064 58.0084 17.3362L58.4297 17.0554C58.7107 16.8449 58.9916 16.7045 59.2023 16.4939C59.0618 16.4939 58.9213 16.5641 58.7809 16.5641C58.5702 16.5641 58.4297 16.6343 58.2191 16.6343L57.7275 16.7747C57.6572 16.7747 57.587 16.7747 57.5168 16.8449V15.7921C57.5168 15.3709 57.4466 14.9498 57.3763 14.5287L57.0954 12.2125C57.1656 12.2125 57.2359 12.1424 57.3061 12.0722L57.7275 11.7914C57.9381 11.651 58.0786 11.5107 58.2893 11.4405V11.5107L58.5702 13.7567C58.6404 14.0374 58.6404 14.3883 58.7107 14.7393ZM57.8679 6.5976L58.0786 8.56283C58.0786 8.77339 58.1488 8.98395 58.1488 9.19451C58.2191 9.40507 58.2191 9.61563 58.2893 9.82619C58.2893 9.89638 58.3595 9.96657 58.3595 10.0368C58.4297 10.3175 58.5702 10.6684 58.6404 10.9492L58.5 11.0194L58.3595 11.0896H58.2893C58.2191 11.0896 58.2191 11.0896 58.1488 11.0896C57.9382 11.1597 57.7275 11.1597 57.5168 11.2299L56.955 11.3703H56.8847L56.3229 7.22929L57.8679 6.5976ZM55.9718 17.5467V17.4064L55.6206 17.5467C55.6206 16.7747 55.5504 16.0728 55.4802 15.3008C55.4802 14.8796 55.4802 14.4585 55.4099 14.0374C55.3397 13.6865 55.2695 13.2653 55.1993 12.9144L56.3931 12.4231L56.674 14.5287C56.7443 14.9498 56.7443 15.3709 56.8847 15.7921L57.1656 16.9151C57.1656 16.9151 57.2359 16.9151 57.2359 16.8449L57.1656 16.9151C56.8847 17.0554 56.674 17.1958 56.3931 17.3362C56.1825 17.4765 56.1122 17.5467 55.9718 17.5467ZM56.042 17.8977V17.6871C56.3931 17.6169 56.7443 17.4765 57.0954 17.3362V17.4064L57.6572 21.6176L56.674 22.0387L56.042 17.8977ZM56.2527 30.812L55.6909 27.6536L56.674 27.2325L57.1656 30.3909L56.2527 30.812ZM57.3061 26.3201L56.7443 22.8107L57.7275 22.3896L58.1488 25.9691L57.3061 26.3201ZM57.3763 27.0219L58.2191 26.671C58.2191 26.8114 58.2893 27.0219 58.2893 27.1623L58.5 28.1449C58.6404 28.7064 58.7809 29.2679 58.9213 29.8294C58.6404 29.8996 58.4297 29.9698 58.2191 30.1102L57.8679 30.1803L57.3763 27.0219ZM59.3427 33.4089L59.2023 33.4791L58.3595 33.7599L57.9382 30.8822L58.4297 30.6717C58.5702 30.6015 58.6404 30.6015 58.7809 30.5313C58.8511 30.812 58.9213 31.0928 58.9916 31.3735C59.132 32.0052 59.2725 32.6369 59.4129 33.3388L59.3427 33.4089ZM60.1854 36.5673L59.8343 33.7599V33.6195L60.4664 33.4791H60.5366V34.181V35.7953C60.5366 36.0058 60.5366 36.2164 60.6068 36.3568L60.1854 36.5673ZM61.2389 33.058L62.4328 32.6369L62.7137 35.3742L61.3793 35.7953L61.2389 35.8655C61.2389 35.7953 61.2389 35.7953 61.2389 35.7251L61.0984 34.8829L60.8175 33.1984V33.058L60.677 33.1282L60.3961 33.1984L59.7641 33.4791V33.4089V33.2686H59.6939L59.4832 33.3388C59.4832 32.6369 59.4832 32.0052 59.4129 31.3033C59.4129 30.8822 59.3427 30.5313 59.3427 30.1102V30.04V29.8996C59.5534 29.8294 59.6939 29.8294 59.9045 29.7592C60.045 29.689 60.1855 29.689 60.3259 29.6189V29.689L60.677 32.7071L60.7473 33.1282L61.2389 33.058ZM60.8175 28.6362L60.5366 28.7064V28.4959C60.5366 28.3555 60.5366 28.1449 60.5366 28.0046L60.4664 27.5133L60.3259 26.1797L60.2557 25.4778V25.4076H60.3259L61.6602 24.9163L61.7305 25.8288L61.8709 27.3027L61.9412 28.2853L60.8175 28.6362ZM62.2923 23.7934L61.9412 19.9331L62.9946 19.512L63.2755 23.3722L62.2923 23.7934ZM62.6434 27.8642L62.5732 26.8816L62.4328 25.4778L62.3625 24.5654L62.6434 24.425L63.2755 24.1443V24.2145L63.3457 25.1269L63.4159 26.3903L63.4862 27.4431L62.6434 27.8642ZM64.048 31.2331L62.9946 31.6543L62.7137 28.6362L63.4862 28.3555C63.4862 28.4959 63.4862 28.6362 63.4862 28.7766L63.6969 29.689C63.8373 30.1803 63.9778 30.7418 64.048 31.2331ZM64.4694 31.2331V31.0928L64.1182 31.2331C64.1182 30.6717 64.1885 30.1803 64.1885 29.6189L64.2587 28.7064C64.2587 28.5661 64.2587 28.4257 64.2587 28.2151V27.9344L65.0312 27.6536L65.1014 29.1275V29.6189C65.1014 29.7592 65.1716 29.9698 65.1716 30.1102L65.3121 30.8822V30.9524V31.0226C65.1716 31.0928 64.961 31.163 64.8205 31.3033C64.6098 31.2331 64.5396 31.2331 64.4694 31.2331Z" fill="#B2292E"/>
<path d="M57.5871 30.8821H57.5169V31.0225L57.9382 33.9001L58.0085 34.1107L57.7275 34.1809L57.1657 34.3914L56.5337 34.6722H56.4634V34.7423L57.0955 37.9709L57.1657 38.1815L57.868 37.9008L58.7107 37.5498L58.8512 37.4796V37.3393L58.2894 34.602L58.2191 34.3212L58.4298 34.251L59.1321 33.9703L59.2726 33.9001L59.413 33.8299V33.9703V34.1107L59.7642 36.6374L59.8344 36.9883V37.0585H59.9046L60.1855 36.9181L60.8176 36.7076H60.8878L60.5367 33.4088V33.3386V33.4088L60.8176 36.6374V36.7076H60.7474L60.1153 36.9181L59.9748 36.9883L59.7642 37.0585V36.9883V36.848V36.7076L59.4832 34.1809L59.413 33.8299V33.7597H59.3428L58.9917 33.9001L58.2894 34.1809V34.1107H58.2191V34.0405V33.9001L57.7978 31.0225V30.8821H57.5871ZM58.3596 37.2691V37.4094L58.2191 37.4796L57.6573 37.6902L57.1657 37.9008H57.0955L57.0253 37.4094L56.7444 35.2337L56.6741 34.9529L56.955 34.8827L57.868 34.602L58.0787 34.5318H58.1489V34.602V34.8125L58.3596 37.2691Z" fill="url(#paint3_linear)"/>
<path d="M58.4298 26.2498L58.5 26.4603V26.6007L58.9916 29.7591L58.8512 28.8467L58.5703 26.5305V26.4603V26.3901V26.2498H58.5H58.4298Z" fill="url(#paint4_linear)"/>
<path d="M65.2419 23.0914L65.3122 23.0212L65.1015 18.4591V18.3187V18.1783L64.1885 18.5994L63.6267 18.81L63.416 18.8802V18.7398L63.0649 14.4584V14.1075L63.2053 14.0373L64.8206 13.3354L65.0312 13.2652L64.961 12.3528L64.7503 8.63292V8.42236H64.5396L62.4328 9.40497H62.3626V9.47516L62.7137 13.7565V13.8267V13.9671L62.503 14.1075L61.4496 14.5988L61.1687 14.7392V14.5286L60.8176 10.8789L60.7473 10.5981V10.4578H60.6771L60.326 10.528L58.7107 11.3H58.6405V11.3702L59.2023 15.6516V15.7218V15.9323L59.3428 15.8622H59.413L60.7473 15.3007H60.8176H60.7473L59.413 15.8622H59.3428L59.2023 15.9323V15.8622V15.792V15.7218L58.7809 11.5106L60.3962 10.8087L60.6069 10.7385H60.6771V10.8087V11.0193L61.0282 15.0199V15.1603H61.0985H61.1687L62.5733 14.5988L62.7839 14.5286V14.7392L63.0649 18.9504V19.0206V19.0907V19.1609L62.9244 18.9504H62.8542L61.871 19.3715H61.8007L61.6603 19.4417V19.3715V19.2311L61.4496 16.8448L61.3092 15.0901V14.9497V14.8795L61.0985 14.9497L60.8878 15.0199V15.2305L61.0282 16.8448L61.3092 19.4417V19.6522V19.7224V19.7926H61.2389H61.1687L59.9748 20.3541L61.1687 19.8628H61.2389L61.3092 19.7926V19.8628H61.3794L61.5198 19.7926V19.933V20.0734L61.8007 23.7933V24.0038L61.5901 24.074L60.5366 24.4951L60.326 24.5653V24.3547L60.045 21.2665L59.9748 20.3541V20.2839H59.9046L59.7641 20.3541H59.6939L59.2725 16.7044L59.2023 16.0727V16.0025V15.8622L58.2893 16.2833L57.5871 16.564V16.4938V16.4236L56.8848 12.2124L56.8146 11.9317L56.8848 11.8615H56.955L58.2893 11.2298L58.6405 11.0895L58.8512 11.0193V10.9491L58.7809 10.0367L58.3596 6.17638V5.96582L58.1489 6.03601L56.042 7.08881L55.9016 7.01862V7.08881L56.5336 11.5808V11.6509V11.7913L56.323 11.9317L55.1993 12.423H55.1291L54.9886 12.4932V12.2826L54.3566 8.07142V7.93105L54.2161 8.00124L52.2497 8.91366H52.1795V8.98385L52.952 13.3354L53.0222 13.6864V13.7565H53.0925L53.3734 13.6162L54.5673 13.0547H54.6375H54.7077L54.8482 12.9845V13.1249V13.2652L55.5504 17.6168L55.6207 17.8274V17.8976V17.9678L55.41 18.0379H55.3398L53.865 18.6696L53.6543 18.7398L53.7947 19.6522L54.497 23.2318V23.4423L54.7077 23.3721L56.1123 22.7405L56.323 22.6703L56.3932 22.8808L56.955 26.3902V26.5305L56.6741 26.6709L55.2695 27.2324L55.1291 27.3728V27.5131L55.8314 31.3734V31.5138L55.9718 31.4436L57.2359 30.9523L57.3764 30.8821V30.8119V30.6716V30.6014L57.2359 30.6716L56.2527 31.0225L56.042 31.0927V30.8821L55.4802 27.7237V27.6535V27.5131L55.6207 27.443L55.6909 27.3728L56.6741 26.9517L56.8848 26.8815V27.092L57.3062 30.2504L57.3764 30.5312L57.5168 30.461H57.5871V30.5312V30.6014V30.7417L57.7978 30.6716L58.6405 30.3908H58.7107V30.5312L58.8512 31.4436L59.0619 33.479V33.6896V33.7598L59.2725 33.6896L59.4832 33.6194V33.5492V33.4088L59.2023 31.4436L59.2725 30.1802L59.413 30.1101L59.9748 29.8995L60.3962 29.7591L60.5366 29.6889V29.5486V29.2678V29.1976L60.4664 28.7765L60.1855 26.2498L60.1153 25.4777V25.4075V25.3374H59.9748H59.9046L59.413 25.5479L58.8512 25.7585H58.7809L58.6405 25.8287V25.7585V25.6181L58.1489 22.179V21.9684L58.3596 21.8982L59.6237 21.3367V21.5473V21.6175L60.045 25.0566V25.1268V25.197V25.2672H60.1153L60.2557 25.197L60.8878 24.9162L61.5901 24.6355L61.8007 24.5653V24.7057V24.7759L61.871 25.6883L62.0114 26.8113H62.1519L62.0817 25.6181L62.0114 24.7057V24.6355V24.4249L62.2221 24.3547L63.1351 24.0038L63.3458 23.9336V24.1442V24.2846L63.416 25.197L63.4862 26.4603V26.8113H63.7671L63.9076 26.2498L63.8374 25.0566L63.7671 24.1442V24.0038V23.7933L63.9778 23.7231L65.2419 23.0914ZM62.9244 13.9671H62.8542V13.8969V13.7565L62.6435 9.61553L62.8542 9.54534L64.329 8.91366L64.5396 8.84348V9.05404L64.6099 12.3528V13.3354V13.4056L63.2053 13.9671L63.0649 14.0373L62.9244 13.9671ZM54.5673 12.9845L53.3032 13.546L53.1627 13.6162L53.0222 13.6864V13.6162V13.546V13.4056L52.3902 9.40497V9.12422L52.6009 9.05404L53.9352 8.49254L54.1459 8.42236L54.2161 8.63292L54.7779 12.7037V12.8441V12.9143V12.9845H54.5673ZM56.1825 7.43974V7.22918L56.3932 7.15899L57.868 6.52731L58.0787 6.31675V6.52731L58.3596 10.0367L58.4298 11.0895V11.1596V11.2298H58.2893L57.0252 11.7913H56.8848H56.8146V11.7211V11.6509L56.7443 11.7211H56.6741V11.5808L56.1825 7.43974ZM55.6207 17.5466L55.3398 15.8622L54.9886 13.1951V13.1249V13.0547V12.8441H55.0589L55.2695 12.7739L56.4634 12.2826L56.6039 12.2124V12.423L57.1657 16.9851L56.042 17.4764L55.6207 17.5466ZM56.042 22.5299L54.9184 22.951L54.7077 23.0212V22.8106L54.2161 19.6522L54.0757 18.6696V18.5994L55.3398 18.1081L55.4802 18.0379L55.6207 17.9678V18.0379V18.1783V18.3187L56.1123 22.2491V22.4597L56.042 22.5299ZM56.3932 22.179L55.7611 18.2485V18.1783V17.9678L56.042 17.8274L57.0955 17.3361L57.2359 17.2659L57.868 21.4771V21.6876L57.6573 21.7578L56.6741 22.179L56.4634 22.2491L56.3932 22.179ZM58.3596 25.8989V26.1094V26.1796V26.2498L58.4298 26.1796V26.2498H58.5L58.7809 26.1796L59.3428 25.969L59.5535 25.8989L59.6939 25.8287V26.0392L59.9748 29.4082V29.4784L59.7641 29.5486L58.9916 29.7591V29.8995L57.9382 30.3206L57.7978 30.3908V30.2504L57.3062 27.092L57.2359 26.8113L57.3764 26.7411L58.2191 26.3902H58.2893H58.3596L58.4298 26.32V26.2498L58.2191 26.32H58.1489L57.3062 26.6709H57.1657H57.0955V26.6007V26.5305H57.0252H56.955V26.4603V26.32L56.4634 22.8106V22.6001L56.6741 22.5299L57.6573 22.179L57.868 22.1088V22.3193L58.3596 25.8989ZM59.2023 21.3367L58.2893 21.6175L58.0787 21.6876V21.4771L57.6573 17.4764V17.3361V17.2659H57.7275L57.868 17.1957L58.5 16.915L59.2725 16.6342H59.3428L59.6939 21.1262L59.2023 21.3367ZM63.2755 23.6529L62.3626 24.0038L62.1519 24.074V23.7933L61.7305 20.0734V20.0032V19.933V19.7926L62.0114 19.6522L63.0649 19.2311L63.2053 19.1609V19.3715L63.5565 23.2318V23.4423L63.2755 23.6529ZM63.6969 23.5125V23.3019L63.4862 19.5119V19.4417V19.3715H63.5565H63.6267H63.6969L64.329 19.0907L65.0312 18.81H65.1015L65.1717 23.0914L64.5396 23.3019L63.9076 23.4423L63.6969 23.5125Z" fill="url(#paint5_linear)"/>
<path d="M96.2125 48.3586L99.162 48.5692L86.4508 66.6774L81.1837 66.8178L96.2125 48.3586Z" fill="#2A3013"/>
<path d="M41.6452 31.3735L45.3673 41.4102L47.0528 45.832L45.6482 46.1127L41.0132 31.7245L41.6452 31.3735Z" fill="#1D252C"/>
<path d="M9.41054 74.3979C40.1002 41.34 52.6008 40.5679 52.6008 40.5679L54.4268 36.4269C54.4268 36.4269 38.0636 39.6555 8.91895 74.3979H9.41054Z" fill="#6E7C7C"/>
<path d="M54.4268 36.4269L53.3734 38.8132C49.7215 39.866 41.5048 43.235 27.389 54.6754C44.8758 38.3219 54.4268 36.4269 54.4268 36.4269Z" fill="#D9D8D6"/>
<path d="M87.3637 38.7431L83.7119 39.0238L75.2845 39.7959L61.7305 43.3754L59.3427 25.2672L75.0738 21.1964L82.9394 23.3722L83.7119 32.9176L87.3637 38.7431Z" fill="url(#paint6_linear)"/>
<path opacity="0.1951" d="M83.7119 32.9176L76.6891 36.8481L75.0739 21.1964L82.9394 23.3722L83.7119 31.584V32.9176Z" fill="url(#paint7_linear)"/>
<path d="M75.0738 28.6362L72.7563 21.9685L75.0738 21.3368L76.6891 37.0586L75.0738 28.6362Z" fill="#B1E1F3"/>
<path d="M94.2461 29.1976L87.3638 38.743L75.0739 37.8306L88.7683 29.6188L94.2461 29.1976Z" fill="url(#paint8_linear)"/>
<path d="M79.428 37.2692L85.5378 37.4798L76.4784 37.8307L85.9592 31.3033L79.428 37.2692Z" fill="#685559"/>
<path d="M55.9718 43.8667L49.3703 45.3407L47.0528 35.3741H54.4267L55.9718 43.8667Z" fill="url(#paint9_linear)"/>
<path d="M49.3001 36.8481V41.5506L48.036 36.3568L54.4268 35.3741L49.3001 36.8481Z" fill="#ECD3CB"/>
<path d="M54.4267 35.3741H47.0528L53.7947 31.8647L54.4267 35.3741Z" fill="url(#paint10_linear)"/>
<path d="M54.2161 34.5318H50.7047L53.7947 31.8647L54.2161 34.5318Z" fill="#9E7453"/>
<path d="M90.7347 57.483L84.5546 58.0445L77.8127 58.606L75.2845 39.7959L75.0739 37.8307L87.3638 38.7431L90.7347 57.483Z" fill="url(#paint11_linear)"/>
<path d="M80.7623 38.1113L39.8193 47.0952L7.37396 74.4681C8.00602 74.4681 65.593 73.5556 65.593 73.5556L80.7623 38.1113Z" fill="url(#paint12_linear)"/>
<path d="M75.6356 47.6568L77.7425 40.6381L63.2053 42.6033L79.3577 39.0238L75.6356 47.6568Z" fill="#E0F2B0"/>
<path d="M70.2983 58.3252L63.416 70.9588L54.4268 72.7135L64.6801 72.5731L70.2983 58.3252Z" fill="#E0F2B0"/>
<path d="M15.2395 71.3799L39.8193 47.0251L7.37396 74.398C8.00602 74.398 23.386 71.7309 23.386 71.7309L15.2395 71.3799Z" fill="#93D500"/>
<path d="M80.3409 38.5325L86.4507 66.6774L68.1212 67.0985L80.3409 38.5325Z" fill="url(#paint13_linear)"/>
<path d="M77.3211 45.3406L72.8967 63.5189L82.2371 65.414L68.1212 67.0985L77.3211 45.3406Z" fill="#2A3013"/>
<path d="M84.5546 58.0444L90.7347 57.4829L84.6249 58.3953L84.5546 58.0444Z" fill="#65CCEF"/>
<path d="M96.353 49.4816L90.7347 57.4829L87.3638 38.743L94.2461 29.1976L96.353 49.4816Z" fill="url(#paint14_linear)"/>
<path d="M81.5348 44.0773H89.4706L84.3439 50.6046L82.9394 50.5344L81.5348 44.0773Z" fill="#90777C"/>
<path d="M81.5348 44.0773H86.4508L83.7119 44.9897L82.9394 50.5345L81.5348 44.0773Z" fill="#685559"/>
<path d="M89.4706 44.0773L90.0324 60.9221L86.4508 66.6774L84.3439 50.6046L89.4706 44.0773Z" fill="#CBAD9D"/>
<path d="M82.9394 31.3734L80.8325 26.6007L76.4784 22.7405L82.5882 24.7057L82.9394 31.3734Z" fill="#406D9D"/>
<path d="M95.3698 49.3413L93.1225 33.8301L88.066 39.7959L93.6843 31.3033L95.3698 49.3413Z" fill="#FFDC9B"/>
<path d="M87.6447 48.0077L85.8187 51.2363L86.8019 62.7469L85.2569 50.8853L87.6447 48.0077Z" fill="#13141B"/>
<path d="M82.9394 50.5344L84.344 50.6046L86.4508 66.6774L82.9394 50.5344Z" fill="#13141B"/>
<path d="M60.2557 60.9221C57.5168 67.5197 39.5384 73.7663 39.5384 73.7663L13.7647 74.1874C13.7647 74.1874 46.8421 64.3613 50.7047 59.378C54.0756 55.0966 41.7155 51.4469 42.1369 48.7798C42.4178 47.0953 44.5948 46.1127 46.2101 45.6214L49.2299 44.9897C48.8085 45.1301 40.5216 47.9376 45.6483 50.1134C51.4772 52.5699 62.5732 55.4476 60.2557 60.9221Z" fill="url(#paint15_linear)"/>
<path opacity="0.49" d="M44.8757 45.9723L49.581 44.9195L53.4436 44.0773V44.2176C48.949 45.6916 39.7491 49.5518 24.931 59.6587L34.482 51.5873C38.2041 49.2711 42.0666 47.3059 44.8757 45.9723Z" fill="#101820"/>
<path d="M80.3409 35.1636L78.9364 38.8133L65.593 73.4855L80.4111 39.2344L86.4508 66.6774L80.3409 35.1636Z" fill="#212322"/>
<path opacity="0.49" d="M68.683 44.4282C68.8235 44.0071 67.5594 43.7965 65.8739 44.0773C64.1884 44.2879 62.7137 44.8493 62.503 45.2705C62.3625 45.6916 63.3457 45.832 64.7503 45.6916L64.1182 46.4636H65.0312L65.5228 45.6214C67.2083 45.3407 68.5426 44.8493 68.683 44.4282Z" fill="#101820"/>
<path opacity="0.49" d="M58.9214 48.7797C59.4832 48.2884 58.3595 48.2183 56.4634 48.5692C54.5672 48.9201 52.6008 49.622 52.039 50.1133C51.5474 50.5344 52.3901 50.6748 53.9352 50.394L52.671 51.2363L53.584 51.1661L54.8481 50.1835C56.6038 49.8325 58.4298 49.2009 58.9214 48.7797Z" fill="#101820"/>
<path opacity="0.49" d="M71.7029 57.6233C72.6861 56.7811 71.6327 56.0792 69.4556 56.1494C67.2083 56.1494 64.4694 56.2898 63.6267 57.132C62.8541 57.8339 63.5564 59.0972 65.3121 59.1674L63.2755 60.5711L64.4694 60.6413L66.3656 59.2376C68.4724 59.027 70.7899 58.3953 71.7029 57.6233Z" fill="#101820"/>
<path d="M64.3992 56.2196H63.2755V60.501H64.3992V56.2196Z" fill="#B97727"/>
<path d="M68.1213 52.7102C68.1213 55.0264 66.2953 56.8512 63.9778 56.8512C61.6603 56.8512 59.8344 55.0264 59.8344 52.7102C59.8344 50.3941 61.6603 48.5692 63.9778 48.5692C66.2953 48.5692 68.1213 50.3941 68.1213 52.7102Z" fill="#76BC21"/>
<path opacity="0.53" d="M68.1212 52.7102C68.1212 55.0264 66.2953 56.8512 63.9778 56.8512C62.0816 56.8512 60.5366 55.5879 60.045 53.9034C60.7473 55.0966 62.8541 52.2189 63.9778 53.2015C66.0144 55.0264 67.6999 54.0438 67.6999 51.7276C67.6999 51.3065 67.6296 50.8854 67.4892 50.5344C67.9105 51.1661 68.1212 51.9382 68.1212 52.7102Z" fill="#564F24"/>
<path d="M42.7689 48.7798L41.7155 31.3735L40.8727 31.8648L41.5048 49.9028C41.5048 49.9028 42.2773 49.4115 42.7689 48.7798Z" fill="#A2A9AD"/>
<path d="M41.9964 36.8481C41.1537 36.2164 41.3644 40.4276 41.0834 40.6382L40.7323 31.8648L41.575 31.3735L41.9964 36.8481Z" fill="#D9D8D6"/>
<path d="M60.4664 29.1977C60.4664 28.9872 60.045 26.2499 60.045 26.2499L73.8097 21.7579L61.5198 27.3729L60.4664 29.1977Z" fill="#B1E1F3"/>
<path opacity="0.49" d="M54.8481 43.7965C54.8481 43.7965 55.9718 43.0245 56.6038 42.6033C57.2359 42.1822 61.1687 39.094 61.1687 39.094L61.5198 41.9015L73.8097 39.094L74.2311 37.4095L76.6891 36.9182L75.0036 37.9008L79.0768 38.5325L54.8481 43.7965Z" fill="#101820"/>
<path d="M65.1716 42.8842H64.2587V46.4637H65.1716V42.8842Z" fill="#212322"/>
<path d="M68.2617 39.866C68.2617 41.7611 66.7167 43.3052 64.8205 43.3052C62.9244 43.3052 61.3793 41.7611 61.3793 39.866C61.3793 37.971 62.9244 36.4269 64.8205 36.4269C66.7167 36.4269 68.2617 37.971 68.2617 39.866Z" fill="#61A60E"/>
<path opacity="0.53" d="M68.2617 39.8661C68.2617 41.7612 66.7167 43.3053 64.8205 43.3053C63.2053 43.3053 61.871 42.2525 61.4496 40.7785C62.0816 41.7612 64.6801 42.1823 65.1717 40.6382C65.7335 38.8133 67.8403 40.7785 67.8403 38.8835C67.8403 38.5326 67.7701 38.2518 67.6999 37.9711C68.051 38.5326 68.2617 39.1642 68.2617 39.8661Z" fill="#564F24"/>
<path d="M53.5138 47.7269H52.6008V51.3064H53.5138V47.7269Z" fill="#8A5D3B"/>
<path d="M56.674 44.7791C56.674 46.6741 55.129 48.2182 53.2329 48.2182C51.3367 48.2182 49.7917 46.6741 49.7917 44.7791C49.7917 42.8841 51.3367 41.3399 53.2329 41.3399C55.129 41.2698 56.674 42.8139 56.674 44.7791Z" fill="#3DAE2B"/>
<path opacity="0.53" d="M56.6741 44.7792C56.6741 46.6742 55.129 48.2183 53.2329 48.2183C51.6176 48.2183 50.2833 47.1655 49.8619 45.6916C50.494 46.6742 53.3733 46.1829 54.2161 44.709C55.9016 42.1823 56.1825 45.6916 56.1825 43.7966C56.1825 43.4457 56.1122 43.1649 56.042 42.8842C56.4634 43.4456 56.6741 44.0773 56.6741 44.7792Z" fill="#564F24"/>
<path d="M99.7239 49.9028L105.342 49.5519L93.0522 60.9923L103.235 50.4643L99.7239 49.9028Z" fill="white"/>
<path d="M88.6981 64.7823L107.028 48.5692L96.2125 48.3586L109.626 47.6567L88.6981 64.7823Z" fill="#212322"/>
<path d="M65.593 73.4855C65.593 73.4855 8.00602 74.398 7.37396 74.398L39.8193 47.0251L10.1831 73.1346C10.8151 73.2048 65.593 73.4855 65.593 73.4855Z" fill="#212322"/>
<path d="M49.3001 65.9053L45.7185 68.1512L41.7857 69.3444L35.8865 71.3798L39.3277 70.0463L39.8193 68.9935L41.4346 68.2916L42.7689 67.4494L49.3001 65.9053Z" fill="#009ABF"/>
<path d="M39.2575 68.9936L41.1537 69.3445L47.4742 66.3967L47.8253 65.4843L41.1537 68.8532L39.2575 68.9936Z" fill="#E3E3E1"/>
<path d="M47.8253 65.4843L39.2575 68.9936L41.1537 69.3445L47.8253 65.4843Z" fill="#E6D6CB"/>
<path d="M44.033 67.4495L46.2803 66.2563L43.5414 61.3433L44.033 67.4495Z" fill="#E4E4E3"/>
<path d="M40.943 68.9233L44.033 67.5196L42.9796 59.3077L40.943 68.9233Z" fill="#F2F2F1"/>
<path d="M30.3386 23.5126C30.3386 28.1449 26.6165 31.8648 21.9814 31.8648C17.3464 31.8648 13.6243 28.1449 13.6243 23.5126C13.6243 19.2312 16.8548 15.7219 20.9982 15.2306C21.3494 15.1604 21.6303 15.1604 21.9814 15.1604C26.6165 15.1604 30.3386 18.8803 30.3386 23.5126Z" fill="url(#paint16_linear)"/>
<path d="M30.3385 23.5125C30.3385 28.1448 26.6164 31.8647 21.9814 31.8647C17.3463 31.8647 27.5996 24.2144 27.5996 19.582C27.5996 16.2131 22.0516 15.3708 20.9982 15.1603C21.3493 15.0901 21.6302 15.0901 21.9814 15.0901C26.6164 15.1603 30.3385 18.8802 30.3385 23.5125Z" fill="#FFCA66"/>
<path d="M31.7431 102.051C31.7431 102.402 31.4621 102.753 31.0408 102.753C30.6896 102.753 30.3385 102.402 30.3385 102.051C30.3385 101.701 30.6896 101.42 31.0408 101.42C31.3919 101.35 31.7431 101.701 31.7431 102.051ZM30.4087 103.876C30.4087 103.455 30.6896 103.174 31.0408 103.174C31.3919 103.174 31.6728 103.455 31.6728 103.876V107.105C31.6728 107.526 31.3919 107.807 31.0408 107.807C30.6896 107.807 30.4087 107.526 30.4087 107.105V103.876Z" fill="white"/>
<path d="M36.4483 109C36.0972 109 35.8163 108.719 35.8163 108.298V107.666H33.2178V108.298C33.2178 108.719 32.9369 109 32.5858 109C32.2346 109 31.9537 108.719 31.9537 108.298V107.315C31.9537 106.894 32.2346 106.614 32.5858 106.614H32.656C32.8667 105.842 32.9369 104.929 32.9369 103.876C32.9369 103.455 33.2178 103.174 33.569 103.174H35.7461C36.0972 103.174 36.3781 103.455 36.3781 103.876V106.614H36.4483C36.7995 106.614 37.0804 106.894 37.0804 107.315V108.298C37.0102 108.719 36.7995 109 36.4483 109ZM35.1842 104.227H34.1308C34.1308 105.14 33.9904 106.052 33.8499 106.754H35.1842V104.227Z" fill="white"/>
<path d="M38.3445 105.842C38.4147 106.473 38.9063 106.684 39.4682 106.684C40.1002 106.684 40.5216 106.192 40.8727 106.192C41.1536 106.192 41.3643 106.473 41.3643 106.684C41.3643 107.175 40.3109 107.737 39.3979 107.737C38.0636 107.737 37.1506 106.754 37.1506 105.42C37.1506 104.157 38.0636 103.104 39.3277 103.104C40.662 103.104 41.5048 104.297 41.5048 105.28C41.5048 105.631 41.3643 105.842 40.943 105.842H38.3445ZM40.2407 105.069C40.1704 104.508 39.8193 104.157 39.2575 104.157C38.6957 104.157 38.3445 104.578 38.2743 105.069H40.2407Z" fill="white"/>
<path d="M43.4009 107.807C42.4177 107.807 41.7155 107.315 41.7155 106.333C41.7155 104.929 43.3307 104.789 44.4543 104.789V104.438C44.4543 104.227 44.2437 104.087 43.8925 104.087C43.1902 104.087 43.0498 104.508 42.7689 104.508C42.4177 104.508 42.207 104.227 42.207 104.017C42.207 103.525 43.1902 103.104 43.8925 103.104C45.0162 103.104 45.6482 103.596 45.6482 104.438V107.035C45.6482 107.386 45.4375 107.666 45.0864 107.666C44.8055 107.666 44.5948 107.596 44.5246 107.245C44.3139 107.666 43.8223 107.807 43.4009 107.807ZM43.6116 106.824C44.2437 106.824 44.5246 106.473 44.5246 105.912V105.701C43.8223 105.701 42.8391 105.631 42.8391 106.333C42.9093 106.684 43.2605 106.824 43.6116 106.824Z" fill="white"/>
<path d="M47.5444 103.245H49.7917C50.1428 103.245 50.4238 103.525 50.4238 103.946V107.105C50.4238 107.526 50.1428 107.807 49.7917 107.807C49.4406 107.807 49.1597 107.526 49.1597 107.105V104.297H48.1062V105.561C48.1062 107.035 47.4742 107.807 46.5612 107.807C46.2101 107.807 45.9994 107.526 45.9994 107.245C45.9994 107.035 46.1398 106.824 46.3505 106.754C46.5612 106.684 46.8421 106.403 46.8421 105.701V103.876C46.9124 103.525 47.1933 103.245 47.5444 103.245Z" fill="white"/>
<path d="M51.0558 107.035V103.876C51.0558 103.455 51.3367 103.174 51.6878 103.174C52.039 103.174 52.3199 103.455 52.3199 103.876V104.859H53.1626C54.0756 104.859 54.7779 105.28 54.7779 106.263C54.7779 107.175 54.1458 107.737 53.3031 107.737H51.6878C51.3367 107.737 51.0558 107.456 51.0558 107.035ZM52.2497 106.684H53.0222C53.3031 106.684 53.5138 106.473 53.5138 106.263C53.5138 106.052 53.3031 105.842 53.0222 105.842H52.2497V106.684Z" fill="white"/>
<path d="M58.6404 107.737C58.2893 107.737 58.0083 107.456 58.0083 107.035V105.842H56.4633V107.035C56.4633 107.456 56.1824 107.737 55.8313 107.737C55.4801 107.737 55.1992 107.456 55.1992 107.035V103.876C55.1992 103.455 55.4801 103.174 55.8313 103.174C56.1824 103.174 56.4633 103.455 56.4633 103.876V104.859H58.0083V103.876C58.0083 103.455 58.2893 103.174 58.6404 103.174C58.9915 103.174 59.2725 103.455 59.2725 103.876V107.105C59.2725 107.526 58.9915 107.737 58.6404 107.737Z" fill="white"/>
<path d="M60.9579 105.842C61.0281 106.473 61.5197 106.684 62.0816 106.684C62.7136 106.684 63.135 106.192 63.4861 106.192C63.767 106.192 63.9777 106.473 63.9777 106.684C63.9777 107.175 62.9243 107.737 62.0113 107.737C60.677 107.737 59.764 106.754 59.764 105.42C59.764 104.157 60.677 103.104 61.9411 103.104C63.2754 103.104 64.1182 104.297 64.1182 105.28C64.1182 105.631 63.9777 105.842 63.5564 105.842H60.9579ZM62.8541 105.069C62.7838 104.508 62.4327 104.157 61.8709 104.157C61.3091 104.157 60.9579 104.578 60.8877 105.069H62.8541Z" fill="white"/>
<path d="M71.7028 107.737C71.2815 107.737 71.141 107.526 71.0708 107.175L70.7899 104.929L70.0876 107.245C70.0174 107.456 69.8769 107.666 69.4555 107.666C69.0342 107.666 68.8937 107.456 68.8235 107.245L68.1212 104.929L67.8403 107.175C67.7701 107.456 67.6296 107.737 67.2082 107.737C66.8571 107.737 66.6464 107.456 66.6464 107.175C66.6464 107.105 66.6464 107.105 66.6464 107.035L67.2785 103.666C67.3487 103.455 67.6296 103.104 68.051 103.104C68.4724 103.104 68.7533 103.385 68.8235 103.596L69.5258 105.842L70.2281 103.596C70.2983 103.385 70.5792 103.104 71.0006 103.104C71.4219 103.104 71.7028 103.385 71.7731 103.666L72.4051 107.035C72.4051 107.105 72.4051 107.105 72.4051 107.175C72.2647 107.526 72.054 107.737 71.7028 107.737Z" fill="white"/>
<path d="M74.0906 102.051C74.0906 102.402 73.8097 102.753 73.3883 102.753C73.0372 102.753 72.686 102.402 72.686 102.051C72.686 101.701 73.0372 101.42 73.3883 101.42C73.7395 101.35 74.0906 101.701 74.0906 102.051ZM72.8265 103.876C72.8265 103.455 73.1074 103.174 73.4585 103.174C73.8097 103.174 74.0906 103.455 74.0906 103.876V107.105C74.0906 107.526 73.8097 107.807 73.4585 107.807C73.1074 107.807 72.8265 107.526 72.8265 107.105V103.876Z" fill="white"/>
<path d="M77.6723 104.508C77.3914 104.508 77.1104 104.297 76.6891 104.297C75.9868 104.297 75.6356 104.929 75.6356 105.561C75.6356 106.192 75.9868 106.754 76.6891 106.754C76.97 106.754 77.4616 106.473 77.602 106.473C77.883 106.473 78.0936 106.684 78.0936 107.035C78.0936 107.666 77.0402 107.877 76.6188 107.877C75.2845 107.877 74.4418 106.824 74.4418 105.561C74.4418 104.297 75.3547 103.245 76.6188 103.245C77.1104 103.245 78.0936 103.455 78.0936 104.017C78.1639 104.157 78.0234 104.508 77.6723 104.508Z" fill="white"/>
<path d="M79.6386 104.297H78.7958C78.4447 104.297 78.234 104.087 78.234 103.736C78.234 103.455 78.4447 103.174 78.7958 103.174H81.6752C81.9561 103.174 82.237 103.315 82.237 103.736C82.237 104.087 81.9561 104.297 81.6752 104.297H80.8325V107.105C80.8325 107.526 80.5515 107.807 80.2004 107.807C79.8493 107.807 79.5683 107.526 79.5683 107.105V104.297H79.6386Z" fill="white"/>
<path d="M86.6614 105.491C86.6614 106.754 85.8187 107.807 84.4843 107.807C83.15 107.807 82.3073 106.754 82.3073 105.491C82.3073 104.227 83.2202 103.175 84.4843 103.175C85.7484 103.104 86.6614 104.227 86.6614 105.491ZM83.5011 105.491C83.5011 106.052 83.782 106.684 84.4843 106.684C85.1164 106.684 85.4675 106.052 85.4675 105.491C85.4675 104.929 85.1866 104.227 84.4843 104.227C83.8523 104.227 83.5011 104.929 83.5011 105.491Z" fill="white"/>
<path d="M0 95.103V92.857C0.421369 93.208 0.983193 93.5589 1.7557 93.8396C2.52821 94.1204 3.23049 94.2608 3.93277 94.2608C5.05642 94.2608 5.96939 93.8396 5.96939 93.0676C5.96939 92.7166 5.7587 92.3657 5.40756 92.1551C5.19688 92.0148 5.12665 92.0148 4.77551 91.8744L4.42437 91.734L3.58163 91.4533L2.80912 91.1725C2.66867 91.1023 2.38775 91.0322 2.10684 90.8918C1.7557 90.7514 1.54502 90.6812 1.40456 90.5409C1.12365 90.3303 0.632053 89.9794 0.421369 89.6284C0.210684 89.2775 0.0702281 88.716 0.0702281 88.1545C0.0702281 87.2421 0.421369 86.47 1.12365 85.9085C1.82593 85.347 2.80912 85.0663 4.07323 85.0663C5.33733 85.0663 6.46098 85.347 7.51441 85.9787V88.0843C6.46098 87.3824 5.26711 87.1017 4.07323 87.1017C2.87935 87.1017 2.2473 87.4526 2.2473 88.1545C2.2473 88.5054 2.45798 88.716 2.80912 88.8564C3.01981 88.9967 3.37095 89.0669 3.65186 89.2073C3.93277 89.2775 4.4946 89.4179 4.77551 89.5582C5.7587 89.9092 6.39076 90.1899 7.09304 90.6812C7.79532 91.1725 8.14646 91.9446 8.14646 92.9272C8.14646 93.9098 7.72509 94.7521 6.95258 95.3136C6.18007 95.875 5.12665 96.226 3.93277 96.226C2.45798 96.226 1.12365 95.875 0 95.103Z" fill="white"/>
<path d="M14.8181 96.0856L10.3937 85.4172H12.7815L15.8715 93.0676L18.9616 85.4172H21.3493L16.8547 96.0856H14.8181Z" fill="white"/>
<path d="M24.3691 96.0154V85.4172H26.5462V96.0154H24.3691Z" fill="white"/>
<path d="M29.7767 85.4172H38.6255V87.3825H35.2545V96.0154H33.0774V87.3825H29.7065V85.4172H29.7767Z" fill="white"/>
<path d="M41.7857 96.0154V85.4172H43.9628V94.0502H49.3703V96.0154H41.7857Z" fill="white"/>
<path d="M52.952 86.821C54.0054 85.7682 55.3398 85.2067 56.8848 85.2067C58.4298 85.2067 59.7641 85.7682 60.8175 86.821C61.871 87.8738 62.3626 89.2073 62.3626 90.7514C62.3626 92.2955 61.8007 93.5589 60.8175 94.6819C59.7641 95.7347 58.5 96.2962 56.8848 96.2962C55.3398 96.2962 54.0054 95.7347 52.952 94.6819C51.8986 93.6291 51.407 92.2955 51.407 90.7514C51.407 89.1371 51.8986 87.8738 52.952 86.821ZM56.8848 94.1906C57.7977 94.1906 58.5702 93.8396 59.2023 93.208C59.8344 92.5763 60.1153 91.734 60.1153 90.7514C60.1153 89.7688 59.7641 88.9266 59.2023 88.2949C58.5702 87.6632 57.7977 87.3123 56.8848 87.3123C55.9718 87.3123 55.1291 87.6632 54.5672 88.2949C53.9352 88.9266 53.6543 89.7688 53.6543 90.7514C53.6543 91.734 53.9352 92.5763 54.5672 93.208C55.1291 93.8396 55.9718 94.1906 56.8848 94.1906Z" fill="white"/>
<path d="M71.2815 96.0154V85.4172H75.9165C77.0402 85.4172 77.9532 85.698 78.5852 86.3297C79.2875 86.8912 79.5684 87.6632 79.5684 88.6458C79.5684 89.6284 79.2173 90.4005 78.5852 90.962C77.9532 91.5235 77.0402 91.8744 75.9165 91.8744H73.4586V96.0856H71.2815V96.0154ZM73.4586 89.9794H75.7761C76.8295 89.9794 77.4616 89.4881 77.4616 88.6458C77.4616 87.8036 76.8295 87.3123 75.7761 87.3123H73.4586V89.9794Z" fill="white"/>
<path d="M80.7623 96.0154L85.3272 85.347H87.434L91.9988 96.0154H89.6813L88.6279 93.5589H84.1333L83.0799 96.0154H80.7623ZM84.8356 91.734H87.9256L86.3806 88.0843L84.8356 91.734Z" fill="white"/>
<path d="M94.8782 96.0154V85.4172H99.7941C100.918 85.4172 101.831 85.698 102.463 86.3297C103.095 86.8912 103.446 87.6632 103.446 88.5756C103.446 89.9794 102.603 91.1024 101.269 91.5235L104.57 96.0856H102.041L98.9514 91.8042H97.1255V96.0856H94.8782V96.0154ZM97.0552 89.9092H99.6537C100.637 89.9092 101.199 89.4881 101.199 88.6458C101.199 87.8738 100.637 87.3825 99.6537 87.3825H97.0552V89.9092Z" fill="white"/>
<path d="M107.449 96.0154V85.4172H109.626V89.6284L113.559 85.4172H116.227L111.733 90.2601L117 96.0154H114.191L109.626 91.1024V96.0154H107.449Z" fill="white"/>
</g>
<defs>
<linearGradient id="paint0_linear" x1="26.9517" y1="52.3764" x2="108.701" y2="52.3764" gradientUnits="userSpaceOnUse">
<stop stop-color="#7EC57F"/>
<stop offset="1" stop-color="#50C3CC"/>
</linearGradient>
<linearGradient id="paint1_linear" x1="49.3071" y1="22.0544" x2="67.8794" y2="22.0544" gradientUnits="userSpaceOnUse">
<stop stop-color="#F26D63"/>
<stop offset="0.4861" stop-color="#F16469"/>
<stop offset="1" stop-color="#F05674"/>
</linearGradient>
<linearGradient id="paint2_linear" x1="64.4202" y1="20.6784" x2="78.974" y2="20.6784" gradientUnits="userSpaceOnUse">
<stop stop-color="#CD1543"/>
<stop offset="0.1446" stop-color="#C12155"/>
<stop offset="0.5238" stop-color="#A53D7E"/>
<stop offset="0.8219" stop-color="#934E98"/>
<stop offset="1" stop-color="#8D54A2"/>
</linearGradient>
<linearGradient id="paint3_linear" x1="56.4582" y1="34.5931" x2="60.9809" y2="34.5931" gradientUnits="userSpaceOnUse">
<stop stop-color="#CD1543"/>
<stop offset="0.1446" stop-color="#C12155"/>
<stop offset="0.5238" stop-color="#A53D7E"/>
<stop offset="0.8219" stop-color="#934E98"/>
<stop offset="1" stop-color="#8D54A2"/>
</linearGradient>
<linearGradient id="paint4_linear" x1="58.4598" y1="28.0027" x2="58.9583" y2="28.0027" gradientUnits="userSpaceOnUse">
<stop stop-color="#CD1543"/>
<stop offset="0.1446" stop-color="#C12155"/>
<stop offset="0.5238" stop-color="#A53D7E"/>
<stop offset="0.8219" stop-color="#934E98"/>
<stop offset="1" stop-color="#8D54A2"/>
</linearGradient>
<linearGradient id="paint5_linear" x1="52.083" y1="19.7977" x2="65.2857" y2="19.7977" gradientUnits="userSpaceOnUse">
<stop stop-color="#CD1543"/>
<stop offset="0.1446" stop-color="#C12155"/>
<stop offset="0.5238" stop-color="#A53D7E"/>
<stop offset="0.8219" stop-color="#934E98"/>
<stop offset="1" stop-color="#8D54A2"/>
</linearGradient>
<linearGradient id="paint6_linear" x1="59.3471" y1="32.252" x2="87.376" y2="32.252" gradientUnits="userSpaceOnUse">
<stop stop-color="#50C3CC"/>
<stop offset="1" stop-color="#1AA1B7"/>
</linearGradient>
<linearGradient id="paint7_linear" x1="75.045" y1="29.0093" x2="83.7425" y2="29.0093" gradientUnits="userSpaceOnUse">
<stop offset="0.030303" stop-color="#006FBA"/>
<stop offset="0.0590355" stop-color="#0D71BA"/>
<stop offset="0.1596" stop-color="#3575BA"/>
<stop offset="0.2665" stop-color="#5878BA"/>
<stop offset="0.3792" stop-color="#757BB9"/>
<stop offset="0.4996" stop-color="#8A7DB9"/>
<stop offset="0.6313" stop-color="#9A7EB9"/>
<stop offset="0.783" stop-color="#A37FB9"/>
<stop offset="1" stop-color="#A67FB9"/>
</linearGradient>
<linearGradient id="paint8_linear" x1="75.045" y1="33.9752" x2="94.2548" y2="33.9752" gradientUnits="userSpaceOnUse">
<stop stop-color="#F26D63"/>
<stop offset="1" stop-color="#F79351"/>
</linearGradient>
<linearGradient id="paint9_linear" x1="47.0274" y1="40.3397" x2="55.9534" y2="40.3397" gradientUnits="userSpaceOnUse">
<stop stop-color="#F26D63"/>
<stop offset="1" stop-color="#F79351"/>
</linearGradient>
<linearGradient id="paint10_linear" x1="47.0274" y1="33.6231" x2="54.4209" y2="33.6231" gradientUnits="userSpaceOnUse">
<stop stop-color="#F26D63"/>
<stop offset="1" stop-color="#F79351"/>
</linearGradient>
<linearGradient id="paint11_linear" x1="75.045" y1="48.2209" x2="90.7194" y2="48.2209" gradientUnits="userSpaceOnUse">
<stop stop-color="#F16B65"/>
<stop offset="0.3832" stop-color="#F0636B"/>
<stop offset="1" stop-color="#EF5C71"/>
</linearGradient>
<linearGradient id="paint12_linear" x1="47.2252" y1="62.8435" x2="113.658" y2="31.7396" gradientUnits="userSpaceOnUse">
<stop stop-color="#7EC57F"/>
<stop offset="1" stop-color="#50C3CC"/>
</linearGradient>
<linearGradient id="paint13_linear" x1="68.1249" y1="52.7884" x2="86.4583" y2="52.7884" gradientUnits="userSpaceOnUse">
<stop stop-color="#7EC57F"/>
<stop offset="1" stop-color="#50C3CC"/>
</linearGradient>
<linearGradient id="paint14_linear" x1="87.3754" y1="43.3533" x2="96.3335" y2="43.3533" gradientUnits="userSpaceOnUse">
<stop stop-color="#F26D63"/>
<stop offset="1" stop-color="#F79351"/>
</linearGradient>
<linearGradient id="paint15_linear" x1="13.7946" y1="59.5906" x2="60.5823" y2="59.5906" gradientUnits="userSpaceOnUse">
<stop stop-color="#50C3CC"/>
<stop offset="1" stop-color="#1AA1B7"/>
</linearGradient>
<linearGradient id="paint16_linear" x1="13.21" y1="29.3468" x2="21.78" y2="23.6243" gradientUnits="userSpaceOnUse">
<stop stop-color="#F26D63"/>
<stop offset="1" stop-color="#F79351"/>
</linearGradient>
<clipPath id="clip0">
<rect width="117" height="109" fill="white"/>
</clipPath>
</defs>
</svg>
